<svg width="80" height="65" viewBox="0 0 80 65" fill="none" xmlns="http://www.w3.org/2000/svg">
<circle cx="25" cy="25" r="23.5" stroke="#8F8383" stroke-width="3"/>
<circle cx="15.5" cy="20.5" r="6.5" fill="#8F8383"/>
<path d="M35.8516 31.0762H46.6973V43.1172L35.8516 31.0762ZM24.373 38.1426H24.2676C24.2676 35.7285 24.9238 33.9473 26.2363 32.7988C27.5488 31.6504 29.5703 31.0762 32.3008 31.0762L46.6973 48.5488C46.6973 50.8691 46.0703 52.5273 44.8164 53.5234C43.5977 54.4961 41.6055 54.9824 38.8398 54.9824L24.373 38.1426ZM24.3203 42.8887L34.7617 55H24.3203V42.8887ZM54.4809 31.0762H63.9379V54.9648H54.4809V31.0762ZM66.8559 37.5801C66.8559 34.9902 67.5121 33.25 68.8246 32.3594C70.0668 31.5273 72.4047 31.1113 75.8383 31.1113H77.6137V34.4336C77.6137 37.082 76.9398 38.9688 75.5922 40.0938C74.2211 41.2188 71.8598 41.7812 68.5082 41.7812H66.8559V37.5801ZM66.8559 43.6094H68.5082C71.8129 43.6094 74.1742 44.2656 75.5922 45.5781C76.9398 46.832 77.6137 48.8125 77.6137 51.5195V55H75.8383C72.475 55 70.1371 54.4961 68.8246 53.4883C67.5121 52.4688 66.8559 50.6406 66.8559 48.0039V43.6094Z" fill="#8F8383"/>
</svg>
